<svg width="689" height="118" fill="none" xmlns="http://www.w3.org/2000/svg"><g opacity=".503"><path d="M31.491 50.288c5.44 0 10.192 1.04 14.256 3.12 4.064 2.048 7.216 4.928 9.456 8.64 2.272 3.712 3.408 8.032 3.408 12.96 0 4.544-1.184 8.656-3.552 12.336-2.368 3.68-5.648 6.608-9.84 8.784-4.16 2.144-8.992 3.216-14.496 3.216-5.44 0-10.192-1.04-14.256-3.12-4.064-2.112-7.232-5.024-9.504-8.736-2.24-3.712-3.36-8-3.36-12.864 0-4.64 1.184-8.784 3.552-12.432 2.368-3.68 5.632-6.576 9.792-8.688 4.192-2.144 9.04-3.216 14.544-3.216Zm3.504 42.096c1.216-.288 2.144-1.136 2.784-2.544.64-1.408.928-3.456.864-6.144-.064-2.688-.544-6.096-1.44-10.224-.832-3.968-1.776-7.2-2.832-9.696-1.024-2.496-2.144-4.288-3.36-5.376-1.216-1.088-2.48-1.472-3.792-1.152-1.216.288-2.144 1.136-2.784 2.544-.64 1.408-.928 3.456-.864 6.144.096 2.656.576 6.064 1.44 10.224.832 3.936 1.776 7.168 2.832 9.696 1.056 2.496 2.176 4.288 3.36 5.376 1.216 1.056 2.48 1.44 3.792 1.152Zm63.989-4.224v-.624h-.72V65.36c0-1.024-.144-1.744-.432-2.16-.256-.448-.656-.752-1.2-.912l-1.056-.336c-.672-.224-1.168-.544-1.488-.96-.288-.416-.432-.944-.432-1.584 0-.768.208-1.376.624-1.824.416-.448 1.2-.896 2.352-1.344l10.656-4.128c1.632-.64 2.944-1.104 3.936-1.392a10.973 10.973 0 0 1 2.976-.432c1.44 0 2.528.416 3.264 1.248.768.8 1.152 1.824 1.152 3.072V87.92c0 1.28.096 2.192.288 2.736.192.512.528.88 1.008 1.104l1.056.48c.736.32 1.264.72 1.584 1.2.32.48.48 1.04.48 1.68 0 .896-.288 1.6-.864 2.112-.576.512-1.504.768-2.784.768h-11.76c-2.272 0-4.288-.976-6.048-2.928-1.728-1.952-2.592-4.256-2.592-6.912Zm-31.728-4.176V65.36c0-1.024-.144-1.744-.432-2.16-.256-.448-.656-.752-1.2-.912l-1.056-.336c-.672-.224-1.168-.544-1.488-.96-.288-.416-.432-.944-.432-1.584 0-.768.208-1.376.624-1.824.416-.448 1.2-.896 2.352-1.344l10.656-4.128c1.728-.672 3.088-1.136 4.08-1.392.992-.288 1.872-.432 2.64-.432 1.536 0 2.688.416 3.456 1.248.768.8 1.152 1.824 1.152 3.072v26.496c0 2.048.464 3.584 1.392 4.608.96 1.024 2.288 1.536 3.984 1.536 1.056 0 2.16-.208 3.312-.624a9.318 9.318 0 0 0 3.072-1.824l1.68-1.488 2.88 3.072-1.44 1.344c-4.512 4.32-8.432 7.344-11.76 9.072-3.328 1.696-6.384 2.544-9.168 2.544-4.256 0-7.712-1.424-10.368-4.272-2.624-2.848-3.936-6.544-3.936-11.088Zm84.221-12.192c0-4.896.64-8.928 1.92-12.096 1.28-3.2 2.976-5.568 5.088-7.104 2.144-1.536 4.48-2.304 7.008-2.304 3.392 0 5.984 1.024 7.776 3.072 1.824 2.016 2.736 5.072 2.736 9.168 0 4.192-.848 7.28-2.544 9.264-1.664 1.984-3.84 2.976-6.528 2.976-2.72 0-4.768-.688-6.144-2.064-1.344-1.408-2.016-3.344-2.016-5.808V64.88c-.032-.832-.224-1.456-.576-1.872-.32-.448-.832-.672-1.536-.672-.64 0-1.216.288-1.728.864-.48.544-.864 1.456-1.152 2.736-.288 1.248-.432 2.944-.432 5.088l-1.872.768Zm.528-17.184 1.344 10.032v23.28c0 1.12.16 1.92.48 2.4.32.448 1.056.784 2.208 1.008l3.648.72c.96.192 1.664.528 2.112 1.008.448.48.672 1.152.672 2.016 0 .928-.32 1.648-.96 2.16-.608.512-1.52.768-2.736.768h-26.544c-1.28 0-2.208-.256-2.784-.768-.576-.512-.864-1.216-.864-2.112 0-.64.16-1.2.48-1.68.32-.48.848-.88 1.584-1.2l1.056-.48c.48-.224.816-.592 1.008-1.104.192-.544.288-1.456.288-2.736V65.552c0-1.024-.144-1.744-.432-2.16-.256-.448-.656-.752-1.2-.912l-1.056-.336c-.672-.224-1.168-.544-1.488-.96-.288-.416-.432-.944-.432-1.584 0-.768.208-1.376.624-1.824.448-.48 1.232-.928 2.352-1.344l10.32-4.032c2.272-.896 3.904-1.472 4.896-1.728s1.76-.384 2.304-.384c.896 0 1.584.336 2.064 1.008.48.64.832 1.744 1.056 3.312Zm95.398 10.512c0 2.432-.928 4.496-2.784 6.192-1.824 1.696-4.272 2.544-7.344 2.544-2.976 0-5.216-.784-6.72-2.352-1.472-1.6-2.208-3.632-2.208-6.096v-1.536c0-2.08-.432-3.712-1.296-4.896-.864-1.216-2-1.824-3.408-1.824-1.12 0-2.176.416-3.168 1.248-.96.832-1.744 2.112-2.352 3.84-.608 1.696-.912 3.856-.912 6.48 0 3.712.624 6.816 1.872 9.312 1.28 2.496 3.024 4.384 5.232 5.664 2.208 1.248 4.72 1.872 7.536 1.872 2.048 0 3.888-.24 5.52-.72 1.664-.512 3.312-1.488 4.944-2.928.928-.832 1.632-1.392 2.112-1.68.48-.288.944-.432 1.392-.432.64 0 1.104.32 1.392.96.32.64.48 1.424.48 2.352 0 2.848-.96 5.52-2.88 8.016-1.888 2.464-4.528 4.448-7.92 5.952-3.392 1.504-7.328 2.256-11.808 2.256-4.896 0-9.296-.96-13.2-2.88-3.872-1.952-6.944-4.656-9.216-8.112-2.272-3.488-3.408-7.552-3.408-12.192 0-4.96 1.088-9.392 3.264-13.296 2.208-3.904 5.312-6.976 9.312-9.216 4.032-2.24 8.784-3.36 14.256-3.36 4.384 0 8.16.672 11.328 2.016 3.2 1.312 5.664 3.088 7.392 5.328 1.728 2.24 2.592 4.736 2.592 7.488Zm33.276-14.832c5.44 0 10.192 1.04 14.256 3.12 4.064 2.048 7.216 4.928 9.456 8.64 2.272 3.712 3.408 8.032 3.408 12.96 0 4.544-1.184 8.656-3.552 12.336-2.368 3.68-5.648 6.608-9.84 8.784-4.16 2.144-8.992 3.216-14.496 3.216-5.44 0-10.192-1.04-14.256-3.12-4.064-2.112-7.232-5.024-9.504-8.736-2.24-3.712-3.36-8-3.36-12.864 0-4.64 1.184-8.784 3.552-12.432 2.368-3.68 5.632-6.576 9.792-8.688 4.192-2.144 9.04-3.216 14.544-3.216Zm3.504 42.096c1.216-.288 2.144-1.136 2.784-2.544.64-1.408.928-3.456.864-6.144-.064-2.688-.544-6.096-1.44-10.224-.832-3.968-1.776-7.2-2.832-9.696-1.024-2.496-2.144-4.288-3.36-5.376-1.216-1.088-2.48-1.472-3.792-1.152-1.216.288-2.144 1.136-2.784 2.544-.64 1.408-.928 3.456-.864 6.144.096 2.656.576 6.064 1.44 10.224.832 3.936 1.776 7.168 2.832 9.696 1.056 2.496 2.176 4.288 3.36 5.376 1.216 1.056 2.48 1.44 3.792 1.152Zm53.572-62.544v58.08c0 1.28.096 2.192.288 2.736.192.512.528.88 1.008 1.104l1.056.48c.736.32 1.264.72 1.584 1.2.32.48.48 1.04.48 1.68 0 .896-.288 1.6-.864 2.112-.576.512-1.504.768-2.784.768h-21.888c-1.28 0-2.208-.256-2.784-.768-.576-.512-.864-1.216-.864-2.112 0-.64.16-1.2.48-1.68.32-.48.848-.88 1.584-1.2l1.056-.48c.48-.224.816-.592 1.008-1.104.192-.544.288-1.456.288-2.736V40.592c0-1.024-.144-1.744-.432-2.16-.256-.448-.656-.752-1.2-.912l-1.056-.336c-.672-.224-1.168-.544-1.488-.96-.288-.416-.432-.944-.432-1.584 0-.768.208-1.376.624-1.824.416-.448 1.2-.896 2.352-1.344l10.656-4.128c1.728-.672 3.088-1.136 4.08-1.392.992-.288 1.872-.432 2.64-.432 1.536 0 2.688.416 3.456 1.248.768.8 1.152 1.824 1.152 3.072Zm33.75 0v58.08c0 1.28.096 2.192.288 2.736.192.512.528.88 1.008 1.104l1.056.48c.736.32 1.264.72 1.584 1.2.32.48.48 1.04.48 1.68 0 .896-.288 1.6-.864 2.112-.576.512-1.504.768-2.784.768h-21.888c-1.28 0-2.208-.256-2.784-.768-.576-.512-.864-1.216-.864-2.112 0-.64.16-1.2.48-1.68.32-.48.848-.88 1.584-1.2l1.056-.48c.48-.224.816-.592 1.008-1.104.192-.544.288-1.456.288-2.736V40.592c0-1.024-.144-1.744-.432-2.16-.256-.448-.656-.752-1.2-.912l-1.056-.336c-.672-.224-1.168-.544-1.488-.96-.288-.416-.432-.944-.432-1.584 0-.768.208-1.376.624-1.824.416-.448 1.2-.896 2.352-1.344l10.656-4.128c1.728-.672 3.088-1.136 4.08-1.392.992-.288 1.872-.432 2.64-.432 1.536 0 2.688.416 3.456 1.248.768.8 1.152 1.824 1.152 3.072Zm57.606 38.976c0 2.24-.608 3.984-1.824 5.232-1.216 1.216-2.96 1.824-5.232 1.824h-28.464V70.88h12.816c1.76 0 2.64-.832 2.64-2.496 0-4.032-.464-6.912-1.392-8.64-.928-1.728-2.16-2.592-3.696-2.592-1.12 0-2.128.416-3.024 1.248-.896.832-1.616 2.112-2.16 3.84-.512 1.696-.768 3.856-.768 6.48 0 5.824 1.312 10.096 3.936 12.816 2.624 2.688 6.208 4.032 10.752 4.032 2.112 0 4.032-.24 5.76-.72 1.728-.48 3.424-1.456 5.088-2.928.928-.832 1.632-1.392 2.112-1.68.48-.288.944-.432 1.392-.432.64 0 1.104.32 1.392.96.32.64.48 1.424.48 2.352 0 2.848-.976 5.52-2.928 8.016-1.92 2.464-4.608 4.448-8.064 5.952-3.424 1.504-7.424 2.256-12 2.256-4.896 0-9.296-.96-13.2-2.88-3.904-1.952-6.992-4.656-9.264-8.112-2.272-3.488-3.408-7.552-3.408-12.192 0-5.216 1.04-9.76 3.12-13.632s5.104-6.88 9.072-9.024c4-2.144 8.816-3.216 14.448-3.216 4.96 0 9.104.8 12.432 2.4 3.328 1.6 5.824 3.792 7.488 6.576 1.664 2.784 2.496 5.968 2.496 9.552Zm52.855-3.696c0 2.432-.928 4.496-2.784 6.192-1.824 1.696-4.272 2.544-7.344 2.544-2.976 0-5.216-.784-6.72-2.352-1.472-1.6-2.208-3.632-2.208-6.096v-1.536c0-2.08-.432-3.712-1.296-4.896-.864-1.216-2-1.824-3.408-1.824-1.12 0-2.176.416-3.168 1.248-.96.832-1.744 2.112-2.352 3.84-.608 1.696-.912 3.856-.912 6.48 0 3.712.624 6.816 1.872 9.312 1.28 2.496 3.024 4.384 5.232 5.664 2.208 1.248 4.72 1.872 7.536 1.872 2.048 0 3.888-.24 5.52-.72 1.664-.512 3.312-1.488 4.944-2.928.928-.832 1.632-1.392 2.112-1.68.48-.288.944-.432 1.392-.432.64 0 1.104.32 1.392.96.32.64.48 1.424.48 2.352 0 2.848-.96 5.52-2.88 8.016-1.888 2.464-4.528 4.448-7.92 5.952-3.392 1.504-7.328 2.256-11.808 2.256-4.896 0-9.296-.96-13.2-2.88-3.872-1.952-6.944-4.656-9.216-8.112-2.272-3.488-3.408-7.552-3.408-12.192 0-4.96 1.088-9.392 3.264-13.296 2.208-3.904 5.312-6.976 9.312-9.216 4.032-2.24 8.784-3.36 14.256-3.36 4.384 0 8.16.672 11.328 2.016 3.2 1.312 5.664 3.088 7.392 5.328 1.728 2.24 2.592 4.736 2.592 7.488Zm7.595-7.152-1.536-.624c-.704-.288-1.232-.656-1.584-1.104-.352-.448-.528-.992-.528-1.632 0-.928.304-1.632.912-2.112.64-.512 1.456-.768 2.448-.768h2.64c.608 0 1.168-.16 1.68-.48.544-.32 1.232-.896 2.064-1.728l7.824-7.92c1.056-1.056 2.032-1.84 2.928-2.352.928-.512 1.808-.768 2.64-.768.928 0 1.648.304 2.16.912.544.608.816 1.488.816 2.64v38.496c0 2.336.4 4.112 1.2 5.328.8 1.216 1.952 1.824 3.456 1.824 1.216 0 2.144-.304 2.784-.912a6.984 6.984 0 0 0 1.584-2.064c.416-.8.848-1.504 1.296-2.112.448-.608 1.056-.912 1.824-.912.64 0 1.152.224 1.536.672.384.448.576 1.216.576 2.304 0 2.72-.784 5.2-2.352 7.44-1.568 2.208-3.728 3.968-6.48 5.28-2.752 1.312-5.888 1.968-9.408 1.968-5.216 0-9.248-1.248-12.096-3.744-2.848-2.528-4.272-6.336-4.272-11.424V61.088c0-.928-.176-1.6-.528-2.016-.32-.416-.848-.784-1.584-1.104Zm15.456.576v-6.816h17.52c.992 0 1.776.224 2.352.672.608.416.912 1.024.912 1.824 0 1.216-.592 2.24-1.776 3.072-1.184.832-3.136 1.248-5.856 1.248h-13.152Zm49.957-3.936V87.92c0 1.28.096 2.192.288 2.736.192.512.528.88 1.008 1.104l1.056.48c.736.32 1.264.72 1.584 1.2.32.48.48 1.04.48 1.68 0 .896-.288 1.6-.864 2.112-.576.512-1.504.768-2.784.768h-21.888c-1.28 0-2.208-.256-2.784-.768-.576-.512-.864-1.216-.864-2.112 0-.64.16-1.2.48-1.68.32-.48.848-.88 1.584-1.2l1.056-.48c.48-.224.816-.592 1.008-1.104.192-.544.288-1.456.288-2.736V65.36c0-1.024-.144-1.744-.432-2.16-.256-.448-.656-.752-1.2-.912l-1.056-.336c-.672-.224-1.168-.544-1.488-.96-.288-.416-.432-.944-.432-1.584 0-.768.208-1.376.624-1.824.416-.448 1.2-.896 2.352-1.344l10.656-4.128c1.728-.672 3.088-1.136 4.08-1.392.992-.288 1.872-.432 2.64-.432 1.536 0 2.688.416 3.456 1.248.768.8 1.152 1.824 1.152 3.072Zm-11.232-8.544c-3.584 0-6.416-.832-8.496-2.496-2.08-1.664-3.12-3.936-3.12-6.816 0-2.848 1.04-5.088 3.12-6.72 2.08-1.632 4.912-2.448 8.496-2.448 3.584 0 6.416.816 8.496 2.448 2.08 1.632 3.12 3.872 3.12 6.72 0 2.88-1.04 5.152-3.12 6.816-2.08 1.664-4.912 2.496-8.496 2.496Zm47.718 4.224c5.44 0 10.192 1.04 14.256 3.12 4.064 2.048 7.216 4.928 9.456 8.64 2.272 3.712 3.408 8.032 3.408 12.96 0 4.544-1.184 8.656-3.552 12.336-2.368 3.68-5.648 6.608-9.84 8.784-4.16 2.144-8.992 3.216-14.496 3.216-5.44 0-10.192-1.04-14.256-3.12-4.064-2.112-7.232-5.024-9.504-8.736-2.24-3.712-3.36-8-3.36-12.864 0-4.64 1.184-8.784 3.552-12.432 2.368-3.68 5.632-6.576 9.792-8.688 4.192-2.144 9.04-3.216 14.544-3.216Zm3.504 42.096c1.216-.288 2.144-1.136 2.784-2.544.64-1.408.928-3.456.864-6.144-.064-2.688-.544-6.096-1.44-10.224-.832-3.968-1.776-7.2-2.832-9.696-1.024-2.496-2.144-4.288-3.36-5.376-1.216-1.088-2.48-1.472-3.792-1.152-1.216.288-2.144 1.136-2.784 2.544-.64 1.408-.928 3.456-.864 6.144.096 2.656.576 6.064 1.44 10.224.832 3.936 1.776 7.168 2.832 9.696 1.056 2.496 2.176 4.288 3.36 5.376 1.216 1.056 2.48 1.44 3.792 1.152Zm53.572-37.776V87.92c0 1.28.096 2.176.288 2.688a2.1 2.1 0 0 0 1.008 1.152l.96.528c1.056.608 1.584 1.488 1.584 2.64 0 2.048-1.232 3.072-3.696 3.072h-21.264c-1.28 0-2.208-.256-2.784-.768-.576-.512-.864-1.216-.864-2.112 0-.64.16-1.2.48-1.68.32-.48.848-.88 1.584-1.2l1.056-.48c.48-.224.816-.592 1.008-1.104.192-.544.288-1.456.288-2.736V65.36c0-1.024-.144-1.744-.432-2.16-.256-.448-.656-.752-1.2-.912l-1.056-.336c-.672-.224-1.168-.544-1.488-.96-.288-.416-.432-.944-.432-1.584 0-.768.208-1.376.624-1.824.416-.448 1.2-.896 2.352-1.344l10.656-4.128c1.632-.64 2.944-1.104 3.936-1.392a10.973 10.973 0 0 1 2.976-.432c1.44 0 2.528.416 3.264 1.248.768.8 1.152 1.824 1.152 3.072Zm-1.728 11.712-2.88-3.072 1.44-1.344c4.512-4.32 8.432-7.328 11.76-9.024 3.328-1.728 6.384-2.592 9.168-2.592 4.288 0 7.744 1.424 10.368 4.272 2.624 2.816 3.936 6.512 3.936 11.088V87.92c0 1.28.096 2.192.288 2.736.192.512.528.88 1.008 1.104l1.056.48c.736.32 1.264.72 1.584 1.2.32.48.48 1.04.48 1.68 0 .896-.288 1.6-.864 2.112-.576.512-1.504.768-2.784.768h-21.264c-2.464 0-3.696-1.024-3.696-3.072 0-1.152.528-2.032 1.584-2.64l.96-.528a2.1 2.1 0 0 0 1.008-1.152c.192-.512.288-1.408.288-2.688V68.528c0-2.048-.48-3.584-1.44-4.608-.928-1.024-2.24-1.536-3.936-1.536-1.056 0-2.16.208-3.312.624a9.318 9.318 0 0 0-3.072 1.824l-1.68 1.488Z" fill="#83888F"/><path fill="url(#a)" d="M0 0h689v118H0z"/></g><defs><linearGradient id="a" x1="0" y1="0" x2="0" y2="118" gradientUnits="userSpaceOnUse"><stop stop-color="#FEFCF7" stop-opacity=".01"/><stop offset="1" stop-color="#FEFCF7"/></linearGradient></defs></svg>